# xmcd
#
# Track frame offsets:
#	150
#	30244
#	106569
#	122779
#	170121
#	185146
#	204061
#	229008
#	269666
#	298880
#	314106
#
# Disc length: 4523 seconds
#
# Revision: 1
# Processed by: cddbd v1.5.2PL0 Copyright (c) Steve Scherf et al.
# Submitted via: audiograbber 1.83.01
#
DISCID=a111a90b
DTITLE=Grateful Dead - 77-06-08 Winterland Arena, San Francisco CA
DYEAR=1900
DGENRE=
TTITLE0=Minglewood Blues
TTITLE1=Sugaree
TTITLE2=Mexicali Blues
TTITLE3=Row Jimmy
TTITLE4=Passenger
TTITLE5=Sunrise
TTITLE6=Brown Eyed Women
TTITLE7=It's All Over Now
TTITLE8=Jack-A-Roe
TTITLE9=Lazy Lightning
TTITLE10=Supplication
EXTD=
EXTT0=
EXTT1=
EXTT2=
EXTT3=
EXTT4=
EXTT5=
EXTT6=
EXTT7=
EXTT8=
EXTT9=
EXTT10=
PLAYORDER=
